<?xml version="1.0" encoding="UTF-8"?>
<svg xmlns="http://www.w3.org/2000/svg" xmlns:xlink="http://www.w3.org/1999/xlink" id="Gradient" viewBox="0 0 512 512" width="512" height="512"><defs><linearGradient id="linear-gradient" x1="256" y1="496" x2="256" y2="16" gradientUnits="userSpaceOnUse"><stop offset="0" stop-color="#12bee5"/><stop offset="0.5" stop-color="#c071e9"/><stop offset="1" stop-color="#f24f5a"/></linearGradient></defs><path d="M463.961,175.011c-21.622-14.906-48.9-18.221-75.384-9.312-13.45-13.839-32-21.7-52.577-21.7-21.5,0-37.193,4.577-48.263,10a7.954,7.954,0,0,0,.263-2V120a7.95,7.95,0,0,0-1.617-4.808,45.751,45.751,0,0,1,7.327-5.7c11.717-7.26,24.56-6.8,38.174,1.371a8,8,0,0,0,12.036-7.991c-.148-1.034-3.83-25.45-22.5-37.869-8.469-5.632-18.433-7.851-29.705-6.669a29.87,29.87,0,0,0-.675-4.773c-4.514-20.073-28.229-34.8-30.919-36.418a8,8,0,0,0-8.232,0,97.093,97.093,0,0,0-13.378,10.068c-9.653,8.649-15.555,17.515-17.541,26.35a29.961,29.961,0,0,0-.675,4.763c-11.067-1.162-20.872.966-29.253,6.383-19.066,12.322-22.807,37.115-22.957,38.165a8,8,0,0,0,12.036,7.991c13.613-8.168,26.456-8.631,38.174-1.371a45.706,45.706,0,0,1,7.327,5.7A7.95,7.95,0,0,0,224,120v32a7.954,7.954,0,0,0,.263,2c-11.07-5.424-26.763-10-48.263-10-20.573,0-39.123,7.858-52.572,21.695-26.676-8.986-54.2-5.519-75.863,9.645C28.1,188.971,16,210.682,16,232c0,41.25,30.568,73.789,34.064,77.374,28.178,33.918,35.428,63.667,37.29,76.244A23.993,23.993,0,0,0,88,430.624v18.752A24,24,0,0,0,96,496H416a24,24,0,0,0,8-46.624V430.624a23.993,23.993,0,0,0,.648-45.006c1.866-12.6,9.121-42.339,37.288-76.244C465.432,305.789,496,273.25,496,232,496,210.472,483.724,188.635,463.961,175.011ZM359.467,384c-.619-16.622.672-60.081,26.481-100.582a206.327,206.327,0,0,1,24.9,14.212c-.366.46-.718.905-1.092,1.372-25.83,32.289-31.895,69.064-33.317,85Zm61.252-99.01a220.031,220.031,0,0,0-25.8-15c11.531-18.742,16.515-39.029,14.635-58.261,13.193-2.268,23.678-.7,30.559,4.651A20.064,20.064,0,0,1,448,232C448,243.132,443.476,255.128,420.719,284.99Zm-33.726-94.325c11.871,23.068,8.319,51.735-9.5,76.685-32.837,45.972-34.815,96.455-34.068,116.65H328.217c.809-19.466,4.632-69.865,22.643-99.884,23.1-38.493,40.151-72.42,14.8-97.773-10.618-10.618-32.138-14.7-52.331-9.937A67.892,67.892,0,0,0,280,195.092V178.854C284.449,174.061,300.536,160,336,160,358.049,160,377.111,171.463,386.993,190.665ZM280,384V256.8a312.415,312.415,0,0,1,62.319,10.321c-1.7,2.929-3.434,5.859-5.179,8.768C316.848,309.705,312.933,363.676,312.18,384Zm-80.18,0c-.753-20.324-4.668-74.3-24.96-108.116-1.747-2.911-3.483-5.843-5.183-8.774A312.4,312.4,0,0,1,232,256.794V384ZM350.263,252.741A326.875,326.875,0,0,0,280,240.762v-15.39c8.3-23.372,26.675-30.957,37-33.394,16.033-3.787,31.578-.085,37.341,5.679,7.7,7.7,9.653,16.4,6.537,29.083C358.956,234.572,355.071,243.474,350.263,252.741ZM272,128v16H240V128ZM232,240.762a326.9,326.9,0,0,0-70.264,11.977c-4.807-9.266-8.692-18.168-10.616-26-3.116-12.687-1.161-21.385,6.537-29.083,5.764-5.764,21.306-9.465,37.341-5.679,10.327,2.437,28.7,10.022,37,33.394ZM248,160h16V384H248Zm64.483-81.725a32.2,32.2,0,0,1,10.141,11.461c-16.035-3.926-29.023.855-37.919,6.514a60.272,60.272,0,0,0-6.6,4.88,51.012,51.012,0,0,1,8.549-24.692c.262-.393.51-.789.751-1.187C297.487,72.93,305.919,73.941,312.483,78.275ZM236.569,57.09c2.063-9.231,12.518-18.475,19.431-23.474,6.918,5,17.369,14.244,19.431,23.474a12.8,12.8,0,0,1-2.087,10.472A67.088,67.088,0,0,0,262.363,112H249.637a67.088,67.088,0,0,0-10.981-44.438A12.8,12.8,0,0,1,236.569,57.09ZM189.376,89.737A32.024,32.024,0,0,1,199.794,78.1c6.52-4.184,14.856-5.126,24.8-2.837.241.4.488.789.748,1.18a51.012,51.012,0,0,1,8.549,24.692,60.176,60.176,0,0,0-6.6-4.88C218.4,90.59,205.417,85.806,189.376,89.737ZM176,160c22.352,0,36.794,5.615,44.974,10.325A46.731,46.731,0,0,1,232,178.861v16.231a67.892,67.892,0,0,0-33.326-18.686c-20.192-4.767-41.712-.681-52.331,9.937-25.354,25.353-8.3,59.28,14.8,97.773,18.012,30.021,21.835,80.422,22.643,99.884h-15.2c.747-20.195-1.231-70.678-34.068-116.65-17.822-24.95-21.374-53.617-9.5-76.685C134.889,171.463,153.951,160,176,160ZM135.564,384c-1.422-15.934-7.487-52.709-33.317-85-.374-.467-.727-.913-1.094-1.374a206.274,206.274,0,0,1,24.9-14.21C151.762,323.8,153.106,367.353,152.517,384ZM117.085,270a219.634,219.634,0,0,0-25.8,15C68.525,255.128,64,243.132,64,232a20.064,20.064,0,0,1,7.889-15.616c6.881-5.352,17.365-6.918,30.559-4.651C100.568,230.966,105.553,251.254,117.085,270Zm-55.42,28.356C61.368,298.053,32,268.093,32,232c0-16.18,9.48-32.868,24.741-43.552,16.026-11.22,36.2-14.425,56.3-9.167-.786,1.324-1.543,2.675-2.257,4.062a78.337,78.337,0,0,0-5.171,12.7c-22.416-3.945-35.949,1.808-43.544,7.715A36.166,36.166,0,0,0,48,232c0,19.01,9.755,37,41.753,77,22.28,27.849,28.152,60.271,29.7,75H103.321c-2-14.647-9.921-47.617-41.175-85.122C62,298.7,61.83,298.517,61.665,298.352ZM104,448V432H408v16Zm312,32H96a8,8,0,0,1,0-16H416a8,8,0,0,1,0,16Zm0-64H96a8,8,0,0,1,0-16H416a8,8,0,0,1,0,16Zm34.343-117.657c-.171.171-.334.35-.489.535-31.254,37.5-39.171,70.475-41.175,85.122H392.55c1.545-14.731,7.417-47.153,29.7-75,32-40,41.753-57.988,41.753-77a36.166,36.166,0,0,0-14.065-28.246c-7.6-5.907-21.128-11.66-43.545-7.715a78.242,78.242,0,0,0-5.17-12.7q-1.073-2.082-2.258-4.063c19.939-5.215,39.93-2.118,55.918,8.905C470.375,198.866,480,215.656,480,232,480,268.093,450.632,298.053,450.343,298.343Z" style="fill:url(#linear-gradient)"/></svg>
