<svg id="Capa_1" enable-background="new 0 0 512 512" height="512" viewBox="0 0 512 512" width="512" xmlns="http://www.w3.org/2000/svg" xmlns:xlink="http://www.w3.org/1999/xlink"><linearGradient id="SVGID_1_" gradientUnits="userSpaceOnUse" x1="256" x2="256" y1="512" y2="45"><stop offset="0" stop-color="#ffbef9"/><stop offset="1" stop-color="#fff1ff"/></linearGradient><linearGradient id="SVGID_2_" gradientUnits="userSpaceOnUse" x1="256" x2="256" y1="444.904" y2="0"><stop offset="0" stop-color="#a93aff"/><stop offset="1" stop-color="#ff81ff"/></linearGradient><g><g><path d="m346.51 225 15-45-15-45-45-15-45 15v90zm89.49-90c0-10.961 0-79.111 0-90-10.889 0-78.673 0-89.49 0l-15 45 15 45 44.745 15zm-179.49 0c0-10.961 0-79.111 0-90-10.961 0-79.111 0-90 0l-15 45 15 45 45 15zm-75 45-15-45-45.255-15-45.255 15v90h90.51zm326.095 306.395c-3.867-3.853-97.181-94.395-251.605-94.395s-247.738 90.542-251.605 94.395c-4.277 4.292-5.566 10.737-3.252 16.348s7.793 9.257 13.857 9.257h482c6.064 0 11.543-3.647 13.857-9.258s1.026-12.055-3.252-16.347z" fill="url(#SVGID_1_)"/></g></g><g><g><path d="m166.51 225h90v-90h-90zm-75.51-180v-30c0-8.284-6.716-15-15-15s-15 6.716-15 15v429.904c9.005-5.28 19.013-10.654 30-15.856v-294.048h75.51v-90zm345-45c-8.284 0-15 6.716-15 15v120h-74.49v90h74.49v204.048c10.987 5.202 20.995 10.576 30 15.856v-429.904c0-8.284-6.716-15-15-15zm-179.49 45v90h90v-90z" fill="url(#SVGID_2_)"/></g></g></svg>