<svg height="450pt" viewBox="-28 0 450 450.10598" width="450pt" xmlns="http://www.w3.org/2000/svg"><path d="m323.511719 310c38.703125-.027344 70.097656 31.332031 70.105469 70.035156.011718 38.703125-31.367188 70.082032-70.070313 70.070313-38.703125-.007813-70.0625-31.402344-70.035156-70.105469.003906-38.660156 31.34375-69.996094 70-70zm0 0" fill="#e48e66"/><path d="m303.511719 152.019531c11.046875.003907 19.996093 8.957031 20 20v137.980469c-22.101563.015625-42.898438 10.460938-56.109375 28.179688-13.207032 17.71875-17.28125 40.632812-10.988282 61.820312h-236.359374c-11.046876 0-20.0000005-8.953125-20.0000005-20v-207.980469c.0039063-11.042969 8.9531245-19.996093 20.0000005-20zm0 0" fill="#f8ec7d"/><path d="m269.601562 150.941406v1.078125h-21.570312v-87.328125c-.023438-23.808594-19.3125-43.101562-43.117188-43.132812h-26.960937v-21.558594h26.960937c35.726563 0 64.6875 28.964844 64.6875 64.691406zm0 0" fill="#e48e66"/><path d="m145.613281 0h32.339844v21.558594h-32.339844zm0 0" fill="#cc7350"/><path d="m75.53125 150.941406v1.078125h-21.566406v-87.328125c0-35.726562 28.960937-64.691406 64.6875-64.691406h26.960937v21.558594h-26.960937c-23.804688.03125-43.09375 19.324218-43.121094 43.132812zm0 0" fill="#e48e66"/><path d="m323.511719 407.878906c-3.3125 0-6-2.683594-6-6v-8.679687c-.054688-9.429688 4.898437-18.183594 13.011719-22.992188 5.878906-3.402343 8.46875-10.53125 6.140624-16.914062-2.324218-6.378907-8.898437-10.171875-15.585937-8.988281-6.6875 1.179687-11.566406 6.992187-11.566406 13.785156 0 3.3125-2.683594 6-6 6-3.3125 0-6-2.6875-6-6 .011719-7.207032 3.007812-14.09375 8.269531-19.015625 5.261719-4.949219 12.359375-7.460938 19.5625-6.921875 11.394531.804687 20.929688 8.949218 23.503906 20.078125 2.578125 11.128906-2.414062 22.632812-12.296875 28.359375-4.421875 2.652344-7.101562 7.453125-7.039062 12.609375v8.679687c0 3.316406-2.683594 6-6 6zm0 0" fill="#f8ec7d"/><path d="m323.511719 427.910156c-5.152344 0-9.328125-4.175781-9.328125-9.332031 0-5.152344 4.175781-9.328125 9.328125-9.328125 5.152343 0 9.332031 4.175781 9.332031 9.328125-.007812 5.152344-4.179688 9.324219-9.332031 9.332031zm0-12c-1.078125-.003906-2.054688.644532-2.472657 1.640625-.417968.996094-.191406 2.148438.574219 2.914063.761719.765625 1.910157.996094 2.910157.582031.996093-.410156 1.648437-1.386719 1.648437-2.46875 0-1.46875-1.1875-2.660156-2.660156-2.667969zm0 0" fill="#f8ec7d"/><g fill="#e48e66"><path d="m133.03125 288.691406c-6.445312-.003906-11.667969-5.230468-11.667969-11.679687 0-6.445313 5.226563-11.671875 11.671875-11.671875 6.449219 0 11.675782 5.222656 11.679688 11.671875-.007813 6.445312-5.234375 11.675781-11.683594 11.679687zm0-12c-.082031-.003906-.164062.03125-.226562.089844-.058594.0625-.09375.144531-.089844.230469 0 .179687.144531.324219.324218.324219.179688 0 .324219-.144532.324219-.324219 0-.089844-.035156-.171875-.097656-.230469-.0625-.0625-.144531-.09375-.234375-.089844zm0 0"/><path d="m190.53125 288.691406c-6.445312 0-11.675781-5.222656-11.679688-11.671875 0-6.449219 5.222657-11.675781 11.671876-11.679687 6.449218-.003906 11.675781 5.222656 11.679687 11.671875-.007813 6.441406-5.226563 11.664062-11.671875 11.679687zm0-12c-.085938-.003906-.167969.027344-.230469.089844-.0625.058594-.097656.140625-.097656.230469 0 .179687.144531.324219.324219.324219.179687 0 .324218-.144532.324218-.324219.003907-.085938-.03125-.167969-.089843-.230469-.0625-.058594-.144531-.09375-.230469-.089844zm0 0"/><path d="m248.023438 288.691406c-6.445313-.003906-11.671876-5.230468-11.671876-11.679687.003907-6.445313 5.226563-11.671875 11.675782-11.671875 6.445312 0 11.671875 5.222656 11.675781 11.671875-.003906 6.445312-5.230469 11.675781-11.679687 11.679687zm0-12c-.085938-.003906-.167969.03125-.230469.089844-.058594.0625-.09375.144531-.089844.230469-.003906.085937.03125.167969.089844.230469.0625.0625.144531.097656.230469.097656.085937 0 .171874-.035156.234374-.09375.0625-.0625.097657-.148438.09375-.234375 0-.089844-.035156-.171875-.097656-.230469-.0625-.0625-.144531-.09375-.230468-.089844zm0 0"/><path d="m75.542969 288.691406c-6.449219 0-11.675781-5.222656-11.679688-11.671875-.003906-6.449219 5.222657-11.675781 11.667969-11.679687 6.449219-.003906 11.679688 5.222656 11.683594 11.671875-.007813 6.441406-5.226563 11.664062-11.671875 11.679687zm0-12c-.085938-.003906-.171875.027344-.230469.089844-.0625.058594-.097656.140625-.097656.230469-.003906.085937.03125.171875.09375.234375.0625.058594.148437.09375.234375.09375.085937 0 .167969-.035156.230469-.097656.058593-.0625.089843-.144532.089843-.230469 0-.085938-.03125-.167969-.09375-.230469-.058593-.058594-.140625-.09375-.226562-.089844zm0 0"/></g></svg>