<svg id="Capa_1" enable-background="new 0 0 512 512" height="512" viewBox="0 0 512 512" width="512" xmlns="http://www.w3.org/2000/svg"><g><path d="m501.593 455.805h-491.187c-5.747 0-10.406-4.659-10.406-10.407v-41.626c0-5.747 4.659-10.407 10.406-10.407h491.187c5.747 0 10.406 4.659 10.406 10.407v41.626c.001 5.748-4.658 10.407-10.406 10.407z" fill="#b78b7a"/><path d="m501.593 393.366h-43.707c5.747 0 10.407 4.659 10.407 10.407v41.626c0 5.747-4.659 10.406-10.407 10.406h43.707c5.747 0 10.406-4.659 10.406-10.406v-41.626c.001-5.748-4.658-10.407-10.406-10.407z" fill="#aa7a63"/><path d="m453.723 393.366h-395.447v-25.08c0-5.69 4.612-10.302 10.302-10.302h374.843c5.69 0 10.302 4.612 10.302 10.302z" fill="#ffe07d"/><path d="m405.853 357.984v35.382h47.87v-25.08c0-5.69-4.612-10.302-10.302-10.302z" fill="#ffd064"/><path d="m99.902 322.602h312.195v35.382h-312.195z" fill="#595959"/><path d="m235.187 92.618h41.626v34.342h-41.626z" fill="#c6c1c8"/><path d="m289.821 92.618h-67.642c-10.058 0-18.211-8.154-18.211-18.211 0-10.058 8.154-18.211 18.211-18.211h67.642c10.058 0 18.211 8.154 18.211 18.211 0 10.057-8.153 18.211-18.211 18.211z" fill="#ffe07d"/><path d="m289.821 56.195h-27.057c10.058 0 18.211 8.154 18.211 18.211s-8.153 18.211-18.211 18.211h27.057c10.058 0 18.211-8.154 18.211-18.211s-8.153-18.211-18.211-18.211z" fill="#ffd064"/><path d="m68.861 322.602c-5.929 0-10.611-4.991-10.289-10.911 5.664-104.126 91.889-186.813 197.428-186.813s191.764 82.687 197.428 186.812c.322 5.92-4.36 10.911-10.289 10.911h-374.278z" fill="#ffe07d"/><path d="m256 124.878c-8.46 0-16.795.534-24.976 1.565 97.408 12.278 172.748 95.419 172.748 196.159h39.367c5.929 0 10.611-4.991 10.289-10.911-5.664-104.126-91.89-186.813-197.428-186.813z" fill="#ffd064"/></g></svg>