<svg id="Layer_1" enable-background="new 0 0 256 256" height="512" viewBox="0 0 256 256" width="512" xmlns="http://www.w3.org/2000/svg"><g><g><g><path d="m113.863 162.789c0 3.214-3.147 5.821-7.023 5.821h-92.346c-3.876 0-7.023-2.606-7.023-5.821 0-15.463 8.576-27.489 20.116-35.086 2.208-1.452 4.484-2.728 6.813-3.842 3.309-1.58 6.732-2.816 10.216-3.734 3.869-1.026 7.806-1.648 11.749-1.897 2.627-.176 5.253-.176 7.853-.013.054.007.108.007.162.013 4.18.263 8.306.939 12.283 1.992 3.565.939 7.016 2.181 10.271 3.714 15.585 7.306 26.929 21.06 26.929 38.853z" fill="#ffe2e2"/><path d="m65.434 118.305c-7.124.574-14.241 2.377-20.906 5.557-2.33 1.114-4.605 2.39-6.813 3.842-11.54 7.597-20.115 19.623-20.115 35.086 0 3.214 3.147 5.821 7.023 5.821h-10.129c-3.876 0-7.023-2.606-7.023-5.821 0-15.463 8.576-27.489 20.116-35.086 2.208-1.452 4.484-2.728 6.813-3.842 6.996-3.336 14.484-5.159 21.966-5.632 2.627-.176 5.253-.176 7.853-.013.054.007.108.007.162.013.351.021.702.048 1.053.075z" fill="#ffefee"/><path d="m113.863 162.79c0 3.214-3.147 5.821-7.023 5.821h-10.128c3.876 0 7.023-2.606 7.023-5.821 0-17.793-11.344-31.548-26.929-38.854-6.59-3.093-13.937-5.031-21.5-5.632.351-.027.709-.054 1.06-.074 2.627-.176 5.253-.176 7.853-.013.054.007.108.007.162.013 7.934.5 15.659 2.471 22.553 5.706 15.585 7.306 26.929 21.061 26.929 38.854z" fill="#ffcfcf"/><path d="m86.934 123.935v27.861l-26.254-8.427h-.027l-26.253 8.427v-27.935c3.309-1.58 6.732-2.816 10.216-3.734 3.869-1.026 7.806-1.648 11.749-1.897 2.627-.176 5.253-.176 7.853-.013.054.007.108.007.162.013 4.18.263 8.306.939 12.283 1.992 3.566.938 7.016 2.181 10.271 3.713z" fill="#5fcdff"/><path d="m68.371 118.612v-21.006h-15.409v20.942c-2.801.332-5.591.848-8.346 1.579 3.07 8.124 7.351 18.653 16.051 23.242 7.997-4.221 13.13-14.544 15.997-23.148-2.705-.716-5.48-1.253-8.293-1.609z" fill="#ffbb98"/><path d="m92.107 42.831v28.522c0 15.605-11.493 28.631-26.422 31.082-.007 0-.007 0-.014 0-3.97.682-9.312.27-10.129 0-14.943-2.431-26.436-15.47-26.436-31.082v-28.522c0-2.141 1.749-3.896 3.889-3.896h55.208c2.141 0 3.904 1.756 3.904 3.896z" fill="#ffbb98"/><path d="m92.107 42.831v28.522c0 15.605-11.493 28.631-26.422 31.082-.007 0-.007 0-.014 0-3.97.682-9.312.27-10.129 0 1.735-.284 3.43-.716 5.064-1.276 12.377-4.241 21.345-16.017 21.345-29.805v-28.158c0-2.343-1.918-4.261-4.254-4.261h10.507c2.14 0 3.903 1.756 3.903 3.896z" fill="#ffaa80"/><path d="m65.671 102.436c-3.97.682-9.312.27-10.129 0-14.943-2.431-26.436-15.47-26.436-31.082v-28.523c0-2.141 1.749-3.896 3.889-3.896h10.52c-2.336 0-4.261 1.918-4.261 4.261v28.158c0 13.789 8.961 25.565 21.351 29.805 1.635.554 3.33.993 5.066 1.277z" fill="#ffcaa6"/><path d="m100.072 38.653v14.921c0 1.401-.852 2.609-2.068 3.121-.73.313-1.334.26-1.408.267-1.898-1.883-4.144-3.61-6.671-5.137-7.672-4.648-17.953-7.487-29.257-7.487-11.363 0-21.704 2.876-29.383 7.561-2.498 1.527-4.714 3.239-6.59 5.107h-.2c-1.811 0-3.365-1.521-3.365-3.38v-14.973c0-3.884.682-7.613 1.935-11.067 1.607-4.451 4.212-8.526 7.583-11.897 5.878-5.886 13.995-9.518 22.964-9.518h13.987c17.937 0 32.473 14.544 32.473 32.482z" fill="#87828e"/><path d="m100.072 38.653v14.921c0 1.401-.852 2.609-2.068 3.121-.73.313-1.334.26-1.408.267-1.898-1.883-4.144-3.61-6.671-5.137v-13.172c0-2.29-.237-4.522-.689-6.671-2.863-13.736-14.411-24.284-28.628-25.655-1.038-.104-2.09-.156-3.158-.156h10.148c17.938 0 32.474 14.544 32.474 32.482z" fill="#796e84"/><path d="m63.758 6.171c-1.06 0-2.112.052-3.15.156-14.262 1.371-25.818 11.964-28.657 25.744-.437 2.127-.667 4.329-.667 6.582v13.246c-2.468 1.512-4.729 3.269-6.59 5.115h-.2c-1.727 0-3.358-1.438-3.358-3.395v-14.966c0-8.843 3.521-16.975 9.51-22.964 5.878-5.886 13.995-9.518 22.964-9.518z" fill="#a4a4a5"/><path d="m100.072 41.714v11.86c0 1.875-1.527 3.395-3.402 3.387h-.074c-7.672-7.605-20.903-12.623-35.928-12.623-15.055 0-28.308 5.04-35.973 12.668h-.2c-1.861-.015-3.365-1.527-3.365-3.38v-11.704c6.53-9.999 21.778-17.012 39.538-17.012 17.633 0 32.792 6.916 39.404 16.804z" fill="#5fcdff"/></g></g><g><g><path d="m248.529 244.008c0 3.214-3.147 5.821-7.023 5.821h-92.347c-3.876 0-7.023-2.606-7.023-5.821 0-15.463 8.576-27.489 20.116-35.086 2.208-1.452 4.484-2.728 6.813-3.842 3.309-1.58 6.732-2.816 10.217-3.734 3.869-1.026 7.806-1.648 11.749-1.897 2.627-.176 5.253-.176 7.853-.013.054.007.108.007.162.013 4.18.263 8.306.939 12.283 1.992 3.565.939 7.016 2.181 10.271 3.714 15.585 7.305 26.929 21.06 26.929 38.853z" fill="#ffe2e2"/><path d="m200.1 199.523c-7.124.574-14.241 2.377-20.906 5.557-2.33 1.114-4.605 2.39-6.813 3.842-11.54 7.597-20.116 19.623-20.116 35.086 0 3.214 3.147 5.821 7.023 5.821h-10.129c-3.876 0-7.023-2.606-7.023-5.821 0-15.463 8.576-27.489 20.116-35.086 2.208-1.452 4.484-2.728 6.813-3.842 6.996-3.336 14.484-5.159 21.966-5.632 2.627-.176 5.253-.176 7.853-.013.054.007.108.007.162.013.352.021.703.048 1.054.075z" fill="#ffefee"/><path d="m248.529 244.009c0 3.214-3.147 5.821-7.023 5.821h-10.129c3.876 0 7.023-2.606 7.023-5.821 0-17.793-11.344-31.548-26.929-38.854-6.59-3.093-13.937-5.031-21.5-5.632.351-.027.709-.054 1.06-.074 2.627-.176 5.253-.176 7.853-.013.054.007.108.007.162.013 7.934.5 15.659 2.471 22.553 5.706 15.586 7.306 26.93 21.061 26.93 38.854z" fill="#ffcfcf"/><path d="m221.6 205.154v27.861l-26.254-8.427h-.027l-26.254 8.427v-27.935c3.309-1.58 6.732-2.816 10.217-3.734 3.869-1.026 7.806-1.648 11.749-1.897 2.627-.176 5.253-.176 7.853-.013.054.007.108.007.162.013 4.18.263 8.306.939 12.283 1.992 3.566.938 7.016 2.18 10.271 3.713z" fill="#ff4a73"/><path d="m203.037 199.831v-21.007h-15.409v20.942c-2.801.332-5.591.848-8.346 1.579 3.07 8.124 7.351 18.653 16.051 23.242 7.997-4.221 13.13-14.544 15.997-23.147-2.706-.716-5.48-1.253-8.293-1.609z" fill="#ffbb98"/><path d="m226.772 124.05v28.522c0 15.605-11.493 28.631-26.422 31.082-.007 0-.007 0-.014 0-3.97.682-9.312.27-10.129 0-14.943-2.431-26.436-15.47-26.436-31.082v-28.522c0-2.141 1.749-3.896 3.889-3.896h55.208c2.142 0 3.904 1.756 3.904 3.896z" fill="#ffbb98"/><path d="m226.772 124.05v28.522c0 15.605-11.493 28.631-26.422 31.082-.007 0-.007 0-.014 0-3.97.682-9.312.27-10.129 0 1.735-.284 3.43-.716 5.064-1.276 12.377-4.241 21.345-16.017 21.345-29.805v-28.158c0-2.343-1.918-4.261-4.254-4.261h10.507c2.141 0 3.903 1.756 3.903 3.896z" fill="#ffaa80"/><path d="m200.336 183.654c-3.97.682-9.312.27-10.129 0-14.943-2.431-26.436-15.47-26.436-31.082v-28.522c0-2.141 1.749-3.896 3.889-3.896h10.52c-2.336 0-4.261 1.918-4.261 4.261v28.158c0 13.789 8.961 25.565 21.351 29.805 1.636.554 3.331.993 5.066 1.276z" fill="#ffcaa6"/><path d="m235.3 83.888c-6.248 5.72-13.946 7.86-13.946 7.86 3.107-5.936 2.858-14.352 1.971-20.841-.322-2.353-3.404-3.056-4.704-1.067-3.72 5.692-10.524 10.48-15.832 13.61-4.397 2.592-9.41 3.941-14.514 3.941-8.969 0-17.086 3.632-22.964 9.518-3.371 3.371-5.976 7.446-7.583 11.897-1.253 3.454-1.935 7.183-1.935 11.067v14.973c0 1.859 1.554 3.38 3.365 3.38h.2c1.875-1.868 4.092-3.58 6.59-5.107 7.679-4.685 18.02-7.561 29.383-7.561 11.304 0 21.585 2.839 29.257 7.487 2.528 1.527 4.774 3.254 6.671 5.137.074-.007.678.046 1.408-.267 1.216-.511 2.068-1.72 2.068-3.121v-14.921c0-2.492-.29-4.915-.821-7.246 4.876-7.916 5.712-19.602 5.697-26.842-.002-2.235-2.663-3.406-4.311-1.897z" fill="#87828e"/><path d="m223.907 79.438c-2.09 1.54-4.2 2.88-6.12 4.01-4.39 2.59-9.41 3.94-14.51 3.94-4.49 0-8.76.91-12.64 2.55-3.89 1.65-7.39 4.03-10.32 6.97-3.38 3.37-5.98 7.45-7.59 11.9-1.25 3.45-1.93 7.18-1.93 11.06v10.7c-1.71.77-3.33 1.63-4.85 2.55-2.5 1.53-4.71 3.24-6.59 5.11h-.2c-1.81 0-3.36-1.52-3.36-3.38v-14.98c0-3.88.68-7.61 1.93-11.06 1.61-4.45 4.21-8.53 7.59-11.9 2.93-2.94 6.43-5.32 10.32-6.97 3.88-1.64 8.15-2.55 12.64-2.55 5.1 0 10.12-1.35 14.51-3.94 5.31-3.13 12.11-7.92 15.83-13.61 1.3-1.99 4.39-1.28 4.71 1.07.36 2.63.61 5.56.58 8.53z" fill="#a4a4a5"/><path d="m233.917 112.628c.53 2.33.82 4.75.82 7.24v14.93c0 1.4-.85 2.6-2.07 3.12-.73.31-1.33.26-1.41.26-1.89-1.88-4.14-3.61-6.67-5.13-1.52-.92-3.14-1.77-4.85-2.54v-10.64c0-2.49-.29-4.91-.82-7.24 3.9-6.33 5.21-15.07 5.58-22.02 2.81-1.16 7.06-3.3 10.8-6.72 1.65-1.51 4.31-.34 4.32 1.9.01 7.24-.82 18.92-5.7 26.84z" fill="#796e84"/><path d="m234.738 122.933v11.86c0 1.875-1.527 3.395-3.402 3.387h-.074c-7.672-7.605-20.903-12.623-35.928-12.623-15.055 0-28.308 5.04-35.973 12.668h-.2c-1.861-.015-3.365-1.527-3.365-3.38v-11.704c6.53-9.999 21.778-17.012 39.538-17.012 17.633 0 32.792 6.916 39.404 16.804z" fill="#ff4a73"/></g></g><g fill="#5f266d"><path d="m179.758 138.235c-2.331 0-4.22 1.889-4.22 4.22s1.889 4.22 4.22 4.22 4.22-1.889 4.22-4.22-1.889-4.22-4.22-4.22z"/><path d="m210.781 146.675c2.331 0 4.22-1.889 4.22-4.22s-1.889-4.22-4.22-4.22-4.22 1.889-4.22 4.22 1.89 4.22 4.22 4.22z"/><circle cx="45.092" cy="61.236" r="4.22"/><circle cx="76.115" cy="61.236" r="4.22"/><path d="m71.201 76.607v-1.33c0-2.209-1.791-4-4-4s-4 1.791-4 4v1.33c0 1.432-1.165 2.597-2.597 2.597s-2.597-1.165-2.597-2.597v-1.33c0-2.209-1.791-4-4-4s-4 1.791-4 4v1.33c0 5.843 4.754 10.597 10.597 10.597s10.597-4.754 10.597-10.597z"/><path d="m14.494 172.609h92.347c6.078 0 11.022-4.405 11.022-9.82 0-23.233-17.705-40.517-40.181-46.436-.001 0-.002 0-.003 0-1.773-.467-3.548-.86-5.308-1.176v-10.357c13.88-4.952 23.735-18.391 23.735-33.467v-10.439c10.264 1.267 7.965-12.384 7.965-22.261 0-20.116-16.362-36.481-36.475-36.481h-13.986c-9.747 0-18.908 3.797-25.792 10.689-12.495 12.492-10.69 25.887-10.69 40.765 0 4.419 3.867 7.763 7.978 7.339v10.388c0 15.135 9.912 28.603 23.856 33.509v10.227c-6.251 1.102-12.174 3.107-16.287 5.164 0 0 0 0-.001 0-2.521 1.205-4.972 2.587-7.287 4.109-14.133 9.303-21.916 22.95-21.916 38.427 0 5.415 4.945 9.82 11.023 9.82zm46.169-33.961c-5.015-3.602-8.268-9.903-10.62-15.625 1.294-.233 2.469-.405 3.378-.509 2.019-.232 3.542-1.941 3.542-3.974v-11.878c.211.018.429.035.654.05.994.084 1.991.142 2.989.142 1.262 0 2.518-.082 3.766-.215v11.975c0 2.021 1.507 3.724 3.513 3.97 1.12.138 2.276.318 3.444.537-2.296 5.649-5.726 11.95-10.666 15.527zm30.271 13.148v-21.138c12.109 7.579 18.929 19.014 18.929 32.132 0 .842-1.32 1.82-3.022 1.82h-42.174v-15.76l21.045 6.755c2.568.826 5.222-1.09 5.222-3.809zm-11.788-26.667c1.29.429 2.555.898 3.788 1.41v19.771l-13.828-4.438c4.403-4.559 7.744-10.834 10.04-16.743zm-52.321-96.185c3.801-10.52 14.043-18.772 26.785-18.772h13.987c13.062 0 24.091 8.846 27.431 20.861-8.725-6.328-21.108-10.123-34.361-10.123-13.37 0-25.812 3.838-34.534 10.241.202-.742.428-1.48.692-2.207zm-1.697 22.356v-8.129c6.3-8.571 20.376-14.261 35.538-14.261 15.257 0 28.976 5.49 35.405 14.075v8.21c-18.451-14.339-52.253-14.548-70.943.105zm7.978 20.053v-15.87c15.15-9.406 39.46-9.62 55.001-.073v15.944c0 12.689-9.017 23.878-21.255 26.765-17.463 4.129-33.746-9.57-33.746-26.766zm5.294 55.097c1.245-.523 2.519-1.002 3.813-1.435 2.413 6.059 5.487 12.185 9.99 16.864l-13.803 4.431zm-8.616 4.596c.202-.133.411-.26.616-.39v21.14c0 2.712 2.643 4.633 5.223 3.809l21.044-6.754v15.759h-42.173c-1.702 0-3.022-.979-3.022-1.82-.001-17.132 11.474-27.243 18.312-31.744z"/><path d="m201.867 152.496c-2.209 0-4 1.791-4 4v1.33c0 1.432-1.165 2.597-2.597 2.597-1.433 0-2.598-1.165-2.598-2.597v-1.33c0-2.209-1.791-4-4-4-7.097 0-4.825 15.927 6.598 15.927 11.366 0 13.799-15.927 6.597-15.927z"/><path d="m149.16 253.828h92.347c6.078 0 11.022-4.405 11.022-9.82 0-24.937-20.394-43.095-45.491-47.612v-10.356c13.88-4.952 23.734-18.39 23.734-33.467v-10.44c3.901.486 7.966-2.825 7.966-7.34 0-6.48 0-8.258 0-14.921 0-2.187-.201-4.388-.599-6.563 4.528-8.366 5.491-19.479 5.475-27.534-.006-2.603-1.551-4.96-3.936-6.007-2.381-1.047-5.162-.586-7.079 1.169-1.622 1.485-3.371 2.703-5.026 3.681.542-4.131.448-8.894-.284-14.255-.823-6.008-8.691-7.796-12.015-2.712-3.336 5.103-9.735 9.533-14.517 12.353-3.757 2.216-8.073 3.387-12.481 3.387-9.749 0-18.909 3.797-25.792 10.689-12.476 12.473-10.689 25.81-10.689 40.765 0 4.409 3.862 7.764 7.978 7.34v10.387c0 15.135 9.912 28.603 23.856 33.509v10.227c-6.265 1.104-12.185 3.112-16.287 5.164 0 0 0 0-.001 0-17.343 8.292-29.203 23.389-29.203 42.536-.001 5.415 4.944 9.82 11.022 9.82zm46.168-33.961c-5.023-3.61-8.274-9.926-10.62-15.626 1.294-.233 2.47-.405 3.378-.509 2.019-.232 3.542-1.941 3.542-3.974v-11.878c2.535.22 4.418.297 7.409-.023v11.975c0 2.021 1.507 3.724 3.513 3.97 1.118.138 2.275.318 3.444.537-2.28 5.615-5.739 11.965-10.666 15.528zm30.272 13.148v-21.138c12.109 7.579 18.929 19.014 18.929 32.132 0 .842-1.32 1.82-3.022 1.82h-42.174v-15.76l21.045 6.755c2.568.826 5.222-1.09 5.222-3.809zm-11.788-26.667c1.29.429 2.555.898 3.788 1.41v19.771l-13.828-4.438c4.461-4.619 7.733-10.805 10.04-16.743zm-25.536-114.957c5.837 0 11.559-1.555 16.545-4.496 4.639-2.734 10.647-6.861 14.929-11.909 1.243 15.517-4.725 15.296-1.506 19.277 1.002 1.24 2.644 1.766 4.182 1.339.312-.086 6.871-1.949 13.139-6.729-.218 6.36-1.255 15.489-5.053 21.655-.356.578-.538 1.234-.572 1.9-8.737-6.436-21.23-10.3-34.607-10.3-13.37 0-25.812 3.838-34.535 10.242 3.226-11.84 14.076-20.979 27.478-20.979zm-28.482 41.128v-8.13c6.3-8.571 20.376-14.261 35.538-14.261 15.257 0 28.976 5.49 35.405 14.075v8.21c-18.383-14.284-52.156-14.617-70.943.106zm7.978 20.053v-15.87c.089-.055.171-.114.261-.169 14.905-9.094 39.049-9.525 54.739.096v15.943c0 12.689-9.017 23.878-21.254 26.765-17.466 4.124-33.746-9.564-33.746-26.765zm5.294 55.097c1.244-.522 2.518-1.001 3.813-1.435 2.405 6.049 5.459 12.16 9.99 16.864l-13.804 4.431v-19.86zm-8 4.205v21.14c0 2.695 2.627 4.638 5.223 3.809l21.044-6.755v15.76h-42.173c-1.702 0-3.022-.979-3.022-1.82-.001-13.788 7.586-24.901 18.928-32.134z"/><path d="m94.002 253.596c.444.158.898.233 1.345.233 1.644 0 3.184-1.021 3.768-2.656l86.944-243.656c.742-2.081-.343-4.37-2.423-5.112-2.079-.741-4.37.343-5.112 2.423l-86.944 243.655c-.743 2.081.342 4.37 2.422 5.113z"/></g></g></svg>