<svg id="Capa_1" enable-background="new 0 0 512 512" height="512" viewBox="0 0 512 512" width="512" xmlns="http://www.w3.org/2000/svg"><g><path d="m450.19 101.64v183.84h-388.38v-183.84c0-16.54 13.38-29.95 29.91-30h328.47c16.57 0 30 13.43 30 30z" fill="#f47c7c"/><path d="m117.47 71.64c-17.07 0-30.9 13.84-30.9 30.91v182.93h-24.76v-183.84c0-16.54 13.38-29.95 29.91-30z" fill="#ee6161"/><path d="m71.812 440.359h-24.421c-3.956 0-6.894-3.665-6.033-7.526l18.878-84.694c.63-2.826 3.137-4.836 6.033-4.836h24.421c3.956 0 6.894 3.665 6.033 7.526l-18.878 84.694c-.63 2.826-3.138 4.836-6.033 4.836z" fill="#9facba"/><path d="m440.188 433.718h24.421c3.956 0 6.894-3.665 6.033-7.526l-18.878-84.694c-.63-2.826-3.137-4.836-6.033-4.836h-24.421c-3.956 0-6.894 3.665-6.033 7.526l18.878 84.694c.63 2.826 3.138 4.836 6.033 4.836z" fill="#9facba"/><path d="m61.811 309.881v-33.763c0-19.33 15.67-35 35-35h318.378c19.33 0 35 15.67 35 35v33.763c0 19.33-15.67 35-35 35h-318.378c-19.33 0-35-15.67-35-35z" fill="#ee6161"/><path d="m122.62 344.88h-25.75c-19.92 0-36.06-16.14-36.06-36.06v-31.65c0-2.92.35-5.75 1-8.47 3.01-12.49 12.52-22.45 24.76-26.08v66.2c0 19.921 16.14 36.06 36.05 36.06z" fill="#e94444"/><path d="m35.253 285.484h441.494v49.48h-441.494z" fill="#f47c7c"/><path d="m97.774 334.964h-25.755c-6.902-6.573-24.58 6.344-24.58-3.938l13.372-45.542h25.755v38.518c-.001 10.281 4.306 4.389 11.208 10.962z" fill="#ee6161"/><path d="m485.42 325.661v35.29c0 4.42-3.58 8-8 8h-449.55c-4.42 0-8-3.58-8-8v-35.29c0-4.42 3.58-8 8-8h449.55c4.42 0 8 3.58 8 8z" fill="#b6c4cf"/><path d="m512 174.861v145.1c0 8.28-6.72 15-15 15h-31.81c-8.29 0-15-6.72-15-15v-145.1c0-8.29 6.71-15 15-15h31.81c8.28 0 15 6.709 15 15z" fill="#f47c7c"/><path d="m52.87 368.951h-25c-4.42 0-8-3.58-8-8v-35.29c0-4.42 3.58-8 8-8h25c-4.56 0-8.25 3.69-8.25 8.24v34.81c0 4.549 3.69 8.24 8.25 8.24z" fill="#9facba"/><path d="m490.4 334.961h-25.21c-8.29 0-15-6.72-15-15v-145.1c0-8.29 6.71-15 15-15h25.21c-8.54 0-15.46 6.92-15.46 15.45v144.2c0 8.53 6.92 15.45 15.46 15.45z" fill="#ee6161"/><path d="m61.81 174.861v145.1c0 8.28-6.71 15-15 15h-31.81c-8.28 0-15-6.72-15-15v-145.1c0-8.29 6.72-15 15-15h31.81c8.29 0 15 6.709 15 15z" fill="#f47c7c"/><path d="m40.21 334.961h-25.21c-8.28 0-15-6.72-15-15v-145.1c0-8.29 6.72-15 15-15h25.21c-8.54 0-15.46 6.92-15.46 15.45v144.2c0 8.53 6.92 15.45 15.46 15.45z" fill="#ee6161"/><g><g><g><path d="m213.76 113.75c-1.97 0-3.9-.8-5.3-2.19-.35-.35-.66-.73-.93-1.14s-.51-.85-.69-1.3c-.19-.45-.33-.92-.43-1.4-.1-.49-.15-.98-.15-1.47s.05-.98.15-1.46.24-.95.43-1.41c.18-.45.42-.88.69-1.29s.58-.8.93-1.14c.35-.35.73-.66 1.14-.93s.84-.51 1.29-.69c.46-.19.93-.33 1.41-.43.97-.19 1.96-.19 2.93 0 .48.1.95.24 1.4.43.45.18.89.42 1.3.69s.79.58 1.14.93c.34.34.66.73.93 1.14s.5.84.69 1.29c.19.46.33.93.43 1.41.09.48.14.97.14 1.46 0 1.98-.8 3.91-2.19 5.31-.35.34-.73.65-1.14.93-.41.27-.85.5-1.3.69-.45.18-.92.33-1.4.42-.49.1-.98.15-1.47.15z" fill="#ee6161"/></g><g><path d="m340.47 113.75c-1.97 0-3.9-.8-5.3-2.2-.34-.34-.66-.72-.93-1.13-.271-.41-.5-.85-.69-1.3s-.33-.92-.43-1.4c-.101-.49-.15-.98-.15-1.47s.05-.98.15-1.46.239-.95.43-1.41c.19-.45.42-.89.69-1.29.27-.41.59-.8.93-1.14.35-.35.729-.66 1.14-.93s.84-.51 1.29-.69c.46-.19.931-.33 1.41-.43.97-.2 1.96-.2 2.93 0 .48.1.95.24 1.4.43.46.18.89.42 1.3.69s.79.58 1.141.93c.34.34.659.73.93 1.14.27.4.5.84.689 1.29.19.46.33.93.431 1.41.1.48.149.97.149 1.46 0 1.98-.81 3.91-2.199 5.3-.351.35-.73.66-1.141.94-.41.27-.84.5-1.3.69-.45.18-.92.33-1.4.42-.48.1-.98.15-1.47.15z" fill="#ee6161"/></g><g><path d="m382.71 113.75c-1.97 0-3.91-.8-5.3-2.19-.351-.35-.66-.73-.931-1.14-.27-.41-.51-.85-.689-1.3-.19-.45-.33-.92-.431-1.4-.1-.49-.149-.98-.149-1.47s.05-.98.149-1.46c.101-.48.24-.95.431-1.41.18-.45.42-.88.689-1.29.271-.41.58-.8.931-1.14 1.39-1.4 3.33-2.2 5.3-2.2 1.979 0 3.91.8 5.3 2.2.35.34.66.73.94 1.14.27.41.5.84.689 1.29.19.46.33.93.43 1.41.091.48.141.97.141 1.46s-.05.98-.141 1.47c-.1.48-.239.95-.43 1.4-.189.45-.42.89-.689 1.3-.28.41-.591.79-.94 1.14-1.39 1.39-3.321 2.19-5.3 2.19z" fill="#ee6161"/></g><g><path d="m129.29 113.75c-1.98 0-3.91-.8-5.31-2.19-.34-.35-.65-.73-.93-1.14-.27-.41-.5-.85-.69-1.3s-.33-.92-.43-1.4c-.09-.49-.14-.98-.14-1.47s.05-.98.14-1.46c.1-.48.24-.95.43-1.41.19-.45.42-.88.69-1.29.28-.41.59-.79.93-1.14 1.4-1.4 3.33-2.2 5.31-2.2 1.97 0 3.91.8 5.3 2.2.35.35.66.73.93 1.14s.51.84.69 1.29c.19.46.34.93.43 1.41.1.48.15.97.15 1.46 0 1.98-.8 3.91-2.2 5.31-1.39 1.39-3.33 2.19-5.3 2.19z" fill="#ee6161"/></g><g><path d="m256 113.75c-.49 0-.98-.05-1.47-.14-.47-.1-.95-.24-1.4-.43s-.89-.42-1.29-.69c-.41-.28-.8-.59-1.14-.93-.35-.35-.66-.73-.94-1.14-.27-.41-.5-.85-.69-1.3-.18-.45-.33-.92-.42-1.4-.1-.49-.15-.98-.15-1.47s.05-.98.15-1.46c.09-.48.24-.95.42-1.41.19-.45.42-.88.69-1.29.28-.41.59-.8.94-1.14 1.74-1.74 4.33-2.54 6.77-2.05.47.1.95.24 1.4.43.449.18.89.42 1.29.69.409.27.8.58 1.14.93.35.34.66.73.94 1.14.27.41.5.84.689 1.29.18.46.33.93.42 1.41.101.48.15.97.15 1.46s-.05.98-.15 1.47c-.09.48-.24.95-.42 1.4-.189.45-.42.89-.689 1.3-.28.41-.591.79-.94 1.14-.34.34-.73.65-1.14.93-.4.27-.841.5-1.29.69-.45.19-.931.33-1.4.43-.49.09-.98.14-1.47.14z" fill="#ee6161"/></g><g><path d="m171.53 113.75c-.49 0-.99-.05-1.47-.15-.48-.09-.95-.24-1.4-.42-.46-.19-.89-.42-1.3-.69-.41-.28-.79-.59-1.14-.94-1.39-1.39-2.19-3.32-2.19-5.3 0-.49.05-.98.14-1.46.1-.48.24-.95.43-1.41.19-.45.42-.88.69-1.29s.59-.8.93-1.14c.35-.35.73-.66 1.14-.93s.84-.51 1.3-.69c.45-.19.92-.33 1.4-.43.97-.19 1.96-.19 2.93 0 .48.1.95.24 1.4.43.46.18.89.42 1.3.69s.79.58 1.14.93c.34.34.66.73.93 1.14s.5.84.69 1.29c.19.46.33.93.43 1.41s.14.97.14 1.46c0 1.98-.8 3.91-2.19 5.3-1.4 1.4-3.33 2.2-5.3 2.2z" fill="#ee6161"/></g><g><path d="m298.24 113.75c-.49 0-.98-.05-1.471-.14-.479-.1-.95-.24-1.399-.43-.46-.19-.891-.42-1.301-.69-.409-.27-.789-.59-1.14-.93-.34-.35-.66-.73-.93-1.14-.271-.41-.5-.85-.69-1.3-.189-.45-.33-.92-.43-1.4-.09-.49-.14-.98-.14-1.47s.05-.98.14-1.46c.1-.48.24-.95.43-1.41.19-.45.42-.88.69-1.29s.59-.79.93-1.14c.351-.35.73-.66 1.14-.93s.841-.51 1.301-.69c.449-.19.92-.33 1.399-.43.971-.19 1.96-.19 2.931 0 .479.1.949.24 1.399.43.46.18.891.42 1.3.69.41.27.79.58 1.141.93.35.35.66.73.93 1.14.271.41.51.84.69 1.29.189.46.33.93.43 1.41s.15.97.15 1.46-.051.98-.15 1.47c-.1.48-.24.95-.43 1.4-.181.45-.42.89-.69 1.3s-.58.79-.93 1.14c-.351.34-.73.66-1.141.93-.409.27-.84.5-1.3.69-.45.19-.92.33-1.399.43-.48.09-.971.14-1.46.14z" fill="#ee6161"/></g></g><g><g><path d="m234.88 146.72c-1.97 0-3.91-.8-5.3-2.2-1.4-1.39-2.2-3.33-2.2-5.3 0-1.98.8-3.91 2.2-5.31 1.74-1.74 4.33-2.54 6.77-2.04.47.09.95.24 1.4.42.45.19.89.42 1.29.69.42.28.8.59 1.15.93 1.39 1.4 2.19 3.33 2.19 5.31 0 1.97-.8 3.91-2.19 5.3-.35.35-.73.66-1.15.93-.4.27-.84.51-1.29.69-.45.19-.93.33-1.4.43-.49.1-.98.15-1.47.15z" fill="#ee6161"/></g><g><path d="m361.59 146.72c-.49 0-.98-.05-1.46-.15s-.95-.24-1.41-.43c-.45-.18-.88-.42-1.29-.69s-.79-.58-1.14-.93c-.351-.35-.66-.73-.931-1.14-.27-.41-.51-.84-.689-1.29-.19-.46-.33-.93-.43-1.41-.101-.48-.15-.97-.15-1.46s.05-.98.15-1.47c.1-.48.239-.95.43-1.4.18-.45.42-.89.689-1.3.271-.41.58-.79.931-1.14.35-.34.729-.66 1.14-.93s.84-.5 1.29-.69c.46-.19.93-.33 1.41-.43 2.43-.49 5.03.31 6.77 2.05.341.35.66.73.931 1.14.27.41.5.85.689 1.3.19.45.33.92.431 1.4.09.49.14.98.14 1.47s-.05.98-.14 1.46c-.101.48-.24.95-.431 1.41-.189.45-.42.88-.689 1.29-.271.41-.59.79-.931 1.14-1.4 1.4-3.331 2.2-5.31 2.2z" fill="#ee6161"/></g><g><path d="m403.83 146.72c-.49 0-.98-.05-1.46-.15-.48-.09-.96-.24-1.41-.43-.45-.18-.891-.42-1.29-.69-.41-.27-.8-.58-1.14-.93-.351-.35-.66-.73-.94-1.14-.271-.41-.5-.84-.68-1.29-.19-.46-.341-.93-.431-1.41-.1-.48-.149-.97-.149-1.46s.05-.98.149-1.47c.09-.48.24-.95.431-1.4.18-.45.409-.89.68-1.29.28-.42.59-.8.94-1.15.34-.34.729-.66 1.14-.93.399-.27.84-.5 1.29-.69s.93-.33 1.41-.43c2.43-.49 5.02.31 6.76 2.05.35.35.66.73.939 1.15.271.4.5.84.69 1.29.18.45.33.92.42 1.4.101.49.15.98.15 1.47s-.05.98-.15 1.46c-.09.48-.24.95-.42 1.41-.19.45-.42.88-.69 1.29-.279.41-.59.79-.939 1.14-1.39 1.4-3.32 2.2-5.3 2.2z" fill="#ee6161"/></g><g><path d="m150.41 146.72c-.49 0-.99-.05-1.47-.15-.48-.09-.95-.24-1.4-.43-.46-.18-.89-.42-1.3-.69s-.79-.58-1.14-.93c-1.39-1.39-2.19-3.33-2.19-5.3 0-.49.05-.98.14-1.47.1-.48.24-.95.43-1.4s.42-.89.69-1.3.59-.79.93-1.14c.35-.34.73-.65 1.14-.93.41-.27.84-.5 1.3-.69.45-.18.92-.33 1.4-.42.97-.2 1.96-.2 2.93 0 .48.09.95.24 1.41.42.45.19.88.42 1.29.69.41.28.79.59 1.14.93.35.35.66.73.93 1.14s.5.85.69 1.3.33.92.43 1.4c.1.49.15.98.15 1.47 0 1.97-.8 3.91-2.2 5.3-.35.35-.73.66-1.14.93s-.84.51-1.29.69c-.46.19-.93.34-1.41.43-.48.1-.97.15-1.46.15z" fill="#ee6161"/></g><g><path d="m277.12 146.72c-1.98 0-3.91-.8-5.311-2.2-.34-.34-.649-.73-.93-1.14-.271-.41-.5-.84-.69-1.29-.18-.46-.33-.93-.42-1.41-.1-.48-.149-.97-.149-1.46s.05-.98.149-1.47c.09-.48.24-.95.42-1.4.19-.45.42-.89.69-1.29.28-.42.59-.8.93-1.15 1.75-1.74 4.34-2.54 6.771-2.05.479.1.96.24 1.41.43.449.19.89.42 1.29.69.409.28.8.59 1.14.93.35.35.66.73.93 1.15.28.4.51.84.69 1.29.189.45.34.92.43 1.4.1.49.15.98.15 1.47s-.051.98-.15 1.46c-.09.48-.24.95-.43 1.41-.181.45-.41.88-.69 1.29-.27.41-.58.8-.93 1.14-.34.35-.73.66-1.14.93-.4.27-.841.51-1.29.69-.45.19-.931.33-1.41.43-.48.1-.971.15-1.46.15z" fill="#ee6161"/></g><g><path d="m192.64 146.72c-1.97 0-3.9-.8-5.3-2.2-.35-.35-.66-.73-.93-1.14s-.5-.84-.69-1.29c-.19-.46-.33-.93-.43-1.41s-.14-.97-.14-1.46.04-.98.14-1.47c.1-.48.24-.95.43-1.4s.42-.89.69-1.29c.27-.42.58-.8.93-1.14 1.74-1.75 4.33-2.55 6.77-2.05.48.09.95.24 1.4.42.45.19.89.42 1.3.69.41.28.79.59 1.14.94.34.34.66.72.93 1.14.27.4.5.84.69 1.29s.33.92.43 1.4c.09.49.14.98.14 1.47s-.05.98-.14 1.46c-.1.48-.24.95-.43 1.41-.19.45-.42.88-.69 1.29s-.59.79-.93 1.14c-.35.35-.73.66-1.14.93s-.85.51-1.3.69c-.45.19-.92.33-1.4.43s-.98.15-1.47.15z" fill="#ee6161"/></g><g><path d="m319.359 146.72c-.489 0-.989-.05-1.47-.15-.479-.1-.95-.24-1.399-.43-.46-.18-.891-.42-1.301-.69-.409-.27-.79-.58-1.14-.93-1.39-1.4-2.19-3.33-2.19-5.3 0-.49.051-.98.141-1.47.1-.48.24-.95.43-1.4s.42-.89.69-1.3.59-.79.93-1.14c.35-.34.73-.66 1.14-.93s.841-.5 1.301-.69c.449-.19.92-.33 1.399-.43 2.43-.49 5.03.31 6.771 2.05.34.35.659.73.93 1.14.27.41.5.85.69 1.3.189.45.329.92.43 1.4.1.49.149.98.149 1.47s-.05.98-.149 1.46c-.101.48-.24.95-.43 1.41-.19.45-.421.88-.69 1.29-.271.41-.59.8-.93 1.14-1.401 1.4-3.331 2.2-5.302 2.2z" fill="#ee6161"/></g><g><path d="m108.17 146.72c-.49 0-.98-.05-1.47-.15-.47-.09-.95-.24-1.4-.43-.45-.18-.89-.42-1.29-.69-.42-.27-.8-.58-1.14-.93-.35-.35-.66-.73-.94-1.14-.27-.41-.5-.84-.69-1.29-.18-.46-.33-.93-.42-1.41-.1-.48-.15-.97-.15-1.46s.05-.98.15-1.47c.09-.48.24-.95.42-1.4.19-.45.42-.89.69-1.3.28-.41.59-.79.94-1.14.34-.34.72-.66 1.14-.93.4-.27.84-.5 1.29-.69s.93-.33 1.4-.43c2.44-.49 5.03.31 6.77 2.05.35.35.66.73.93 1.14s.51.85.69 1.3c.19.45.34.92.43 1.4.1.49.15.98.15 1.47s-.05.98-.15 1.46c-.09.48-.24.95-.43 1.41-.18.45-.42.88-.69 1.29s-.58.79-.93 1.14c-.34.35-.73.66-1.14.93-.4.27-.84.51-1.29.69-.46.19-.93.34-1.41.43-.48.1-.97.15-1.46.15z" fill="#ee6161"/></g></g><g><g><path d="m213.76 179.68c-1.97 0-3.9-.8-5.3-2.19-.35-.35-.66-.73-.93-1.14s-.51-.85-.69-1.3c-.19-.45-.33-.92-.43-1.4s-.15-.98-.15-1.47.05-.98.15-1.46.24-.95.43-1.41c.18-.45.42-.88.69-1.29s.58-.79.93-1.14c1.74-1.74 4.33-2.54 6.77-2.05.48.1.95.24 1.4.43s.89.42 1.3.69.79.58 1.14.93c.34.35.66.73.93 1.14s.5.84.69 1.29c.19.46.33.93.43 1.41.09.48.14.97.14 1.46s-.05.99-.14 1.47c-.1.48-.24.95-.43 1.4s-.42.89-.69 1.3-.59.79-.93 1.14c-.35.34-.73.66-1.14.93s-.85.5-1.3.69-.92.33-1.4.43c-.49.09-.98.14-1.47.14z" fill="#ee6161"/></g><g><path d="m340.47 179.68c-1.97 0-3.91-.8-5.3-2.19-1.4-1.4-2.2-3.33-2.2-5.31 0-.49.05-.98.15-1.46s.239-.95.43-1.41c.19-.45.42-.88.69-1.29s.59-.79.93-1.14c1.74-1.74 4.33-2.54 6.77-2.05.48.1.95.24 1.4.43.46.19.89.42 1.3.69s.79.58 1.141.93c.34.35.659.73.93 1.14.27.41.5.84.689 1.29.19.46.33.93.431 1.41.1.48.149.97.149 1.46 0 1.98-.81 3.91-2.199 5.31-.351.34-.73.66-1.141.93s-.84.5-1.3.69c-.45.19-.92.33-1.4.43-.48.09-.98.14-1.47.14z" fill="#ee6161"/></g><g><path d="m382.71 179.68c-1.97 0-3.91-.8-5.3-2.19-.351-.35-.66-.73-.931-1.14-.27-.41-.51-.85-.689-1.3-.19-.45-.33-.92-.431-1.4-.1-.48-.149-.98-.149-1.47 0-.48.05-.98.149-1.46.101-.48.24-.95.431-1.41.18-.45.42-.88.689-1.29.271-.41.58-.79.931-1.14 1.39-1.4 3.33-2.2 5.3-2.2 1.979 0 3.91.8 5.3 2.2.35.35.66.73.94 1.14.27.41.5.84.689 1.29.19.46.33.93.43 1.41.091.48.141.98.141 1.46 0 .49-.05.99-.141 1.47-.1.48-.239.95-.43 1.4-.189.45-.42.89-.689 1.3-.28.41-.591.79-.94 1.14-1.39 1.39-3.321 2.19-5.3 2.19z" fill="#ee6161"/></g><g><path d="m129.29 179.68c-1.98 0-3.91-.8-5.31-2.19-.34-.35-.65-.73-.93-1.14-.27-.41-.5-.85-.69-1.3s-.33-.92-.43-1.4c-.09-.48-.14-.98-.14-1.47s.05-.98.14-1.46c.1-.48.24-.95.43-1.41.19-.45.42-.88.69-1.29.28-.41.59-.79.93-1.14 1.4-1.4 3.33-2.2 5.31-2.2 1.97 0 3.9.8 5.3 2.2.35.35.66.73.93 1.14s.51.84.69 1.29c.19.46.34.93.43 1.41.1.48.15.97.15 1.46s-.05.99-.15 1.47c-.09.48-.24.95-.43 1.4-.18.45-.42.89-.69 1.3s-.58.79-.93 1.14c-1.39 1.39-3.33 2.19-5.3 2.19z" fill="#ee6161"/></g><g><path d="m256 179.68c-.49 0-.98-.05-1.47-.14-.47-.1-.95-.24-1.4-.43s-.89-.42-1.29-.69c-.41-.27-.8-.59-1.14-.93-1.4-1.4-2.2-3.33-2.2-5.31 0-.48.05-.98.15-1.46.09-.48.24-.95.42-1.4.19-.46.42-.89.69-1.3.28-.41.59-.79.94-1.14.34-.35.73-.66 1.14-.93.4-.27.84-.5 1.29-.69s.93-.33 1.4-.43c.97-.19 1.97-.19 2.94 0 .47.1.95.24 1.4.43.449.19.89.42 1.29.69.409.27.8.58 1.14.93.35.35.66.73.94 1.14.27.41.5.84.689 1.3.18.45.33.92.42 1.4.101.48.15.98.15 1.46 0 .49-.05.99-.15 1.47-.09.48-.24.95-.42 1.4-.189.45-.42.89-.689 1.3-.28.41-.591.79-.94 1.14-.34.34-.73.66-1.14.93-.4.27-.841.5-1.29.69-.45.19-.931.33-1.4.43-.49.09-.98.14-1.47.14z" fill="#ee6161"/></g><g><path d="m171.53 179.68c-.49 0-.99-.04-1.47-.14s-.95-.24-1.4-.43c-.46-.19-.89-.42-1.3-.69s-.79-.59-1.14-.93c-1.39-1.4-2.19-3.33-2.19-5.31 0-.48.05-.98.14-1.46.1-.48.24-.95.43-1.41.19-.45.42-.88.69-1.29s.59-.79.93-1.14c1.4-1.4 3.33-2.2 5.31-2.2 1.97 0 3.9.8 5.3 2.2.34.35.66.73.93 1.14s.5.84.69 1.29c.19.46.33.93.43 1.41s.14.98.14 1.46c0 1.98-.8 3.91-2.19 5.31-1.4 1.39-3.33 2.19-5.3 2.19z" fill="#ee6161"/></g><g><path d="m298.24 179.68c-.49 0-.98-.05-1.471-.14-.479-.1-.95-.24-1.399-.43-.46-.19-.891-.42-1.301-.69-.409-.27-.789-.59-1.14-.93-.34-.35-.66-.73-.93-1.14-.271-.41-.5-.85-.69-1.3-.189-.45-.33-.92-.43-1.4-.09-.48-.14-.98-.14-1.47 0-1.97.8-3.9 2.189-5.3.351-.35.73-.66 1.14-.93s.841-.5 1.301-.69c.449-.19.92-.33 1.399-.43.971-.19 1.96-.19 2.931 0 .479.1.949.24 1.399.43.46.19.891.42 1.3.69.41.27.79.58 1.141.93.35.35.66.73.93 1.14.271.41.51.84.69 1.29.189.46.33.93.43 1.41s.15.97.15 1.46-.051.99-.15 1.47-.24.95-.43 1.4c-.181.45-.42.89-.69 1.3s-.58.79-.93 1.14c-.351.34-.73.66-1.141.93-.409.27-.84.5-1.3.69-.45.19-.92.33-1.399.43-.479.09-.97.14-1.459.14z" fill="#ee6161"/></g></g><g><g><path d="m234.88 212.65c-1.97 0-3.91-.8-5.3-2.2-.35-.34-.66-.73-.93-1.14-.27-.4-.51-.84-.69-1.29-.19-.45-.33-.93-.43-1.4-.1-.49-.15-.98-.15-1.47s.05-.98.15-1.47c.1-.47.24-.95.43-1.4.18-.45.42-.89.69-1.29.27-.42.58-.8.93-1.15 1.74-1.74 4.33-2.54 6.77-2.04.47.09.95.24 1.4.42.45.19.89.42 1.29.69.42.28.8.59 1.15.93.34.35.65.73.93 1.15.27.4.5.84.69 1.29.18.45.33.93.42 1.4.1.49.15.98.15 1.47s-.05.98-.15 1.47c-.09.47-.24.95-.42 1.4-.19.45-.42.89-.69 1.29-.28.41-.59.8-.93 1.14-.35.35-.73.66-1.15.94-.4.27-.84.5-1.29.69-.45.18-.93.33-1.4.42-.49.1-.98.15-1.47.15z" fill="#ee6161"/></g><g><path d="m361.59 212.65c-.49 0-.98-.05-1.46-.15-.48-.09-.95-.24-1.41-.42-.45-.19-.88-.42-1.29-.69-.41-.28-.79-.59-1.14-.94-.351-.34-.66-.73-.931-1.14-.27-.4-.51-.84-.689-1.29-.19-.45-.33-.93-.43-1.4-.101-.49-.15-.98-.15-1.47s.05-.98.15-1.47c.1-.47.239-.95.43-1.4.18-.45.42-.89.689-1.29.271-.42.58-.8.931-1.15.35-.34.729-.65 1.14-.93.41-.27.84-.5 1.29-.69.46-.18.93-.33 1.41-.42.96-.2 1.96-.2 2.93 0 .48.09.95.24 1.4.42.46.19.89.42 1.3.69.41.28.79.59 1.14.93.341.35.66.73.931 1.15.27.4.5.84.689 1.29.19.45.33.93.431 1.4.09.49.14.98.14 1.47s-.05.98-.14 1.47c-.101.47-.24.95-.431 1.4-.189.45-.42.89-.689 1.29-.271.41-.59.8-.931 1.14-1.4 1.4-3.331 2.2-5.31 2.2z" fill="#ee6161"/></g><g><path d="m403.83 212.65c-.49 0-.98-.05-1.46-.15-.48-.09-.96-.24-1.41-.43-.45-.18-.891-.42-1.29-.69-.41-.27-.8-.58-1.14-.93-.351-.34-.66-.73-.94-1.14-.271-.4-.5-.84-.68-1.29-.19-.46-.341-.93-.431-1.41-.1-.48-.149-.97-.149-1.46s.05-.98.149-1.47c.09-.47.24-.95.431-1.4.18-.45.409-.89.68-1.29.28-.41.59-.8.94-1.14.34-.35.729-.66 1.14-.94.399-.27.84-.5 1.29-.69.45-.18.93-.33 1.41-.42 2.43-.5 5.02.3 6.76 2.05.35.34.66.73.939 1.14.271.4.5.84.69 1.29.18.45.33.93.42 1.4.101.49.15.98.15 1.47 0 1.98-.8 3.91-2.2 5.3-1.389 1.4-3.319 2.2-5.299 2.2z" fill="#ee6161"/></g><g><path d="m150.41 212.65c-.49 0-.99-.05-1.47-.15-.48-.09-.95-.24-1.4-.42-.46-.19-.89-.42-1.3-.7-.41-.27-.79-.58-1.14-.93-.34-.34-.66-.73-.93-1.14-.27-.4-.5-.84-.69-1.29-.19-.46-.33-.93-.43-1.41-.09-.48-.14-.97-.14-1.46s.05-.98.14-1.47c.1-.47.24-.95.43-1.4s.42-.89.69-1.29c.27-.41.59-.8.93-1.14.35-.35.73-.66 1.14-.94.41-.27.84-.5 1.3-.69.45-.18.92-.33 1.4-.42.97-.2 1.96-.2 2.93 0 .48.09.95.24 1.41.42.45.19.88.42 1.29.69.41.28.79.59 1.14.94.35.34.66.73.93 1.14.27.4.5.84.69 1.29s.33.93.43 1.4c.1.49.15.98.15 1.47s-.05.98-.15 1.46-.24.95-.43 1.41c-.19.45-.42.89-.69 1.29-.27.41-.58.8-.93 1.14-1.4 1.4-3.33 2.2-5.3 2.2z" fill="#ee6161"/></g><g><path d="m277.12 212.65c-.49 0-.98-.05-1.471-.15-.479-.09-.949-.24-1.399-.43-.45-.18-.891-.41-1.3-.68-.41-.28-.79-.59-1.141-.94-.34-.34-.649-.73-.93-1.14-.271-.4-.5-.84-.69-1.29-.18-.45-.33-.93-.42-1.4-.1-.49-.149-.98-.149-1.47 0-1.98.8-3.91 2.189-5.3 1.75-1.75 4.34-2.55 6.771-2.05.479.09.96.24 1.41.42.449.19.89.42 1.29.69.409.28.8.59 1.14.94 1.399 1.39 2.2 3.32 2.2 5.3 0 1.97-.801 3.91-2.2 5.3-.34.35-.73.66-1.14.94-.4.27-.841.5-1.29.68-.45.19-.931.34-1.41.43-.48.1-.971.15-1.46.15z" fill="#ee6161"/></g><g><path d="m192.64 212.65c-1.97 0-3.9-.8-5.3-2.2-.35-.34-.66-.73-.93-1.14-.27-.4-.5-.84-.69-1.29s-.33-.93-.43-1.41-.14-.97-.14-1.46.04-.98.14-1.47c.1-.47.24-.95.43-1.4s.42-.89.69-1.29c.27-.41.58-.8.93-1.14 1.74-1.75 4.33-2.55 6.77-2.05.48.09.95.24 1.4.42.45.19.89.42 1.3.69.41.28.79.59 1.14.94.34.34.66.73.93 1.14.27.4.5.84.69 1.29s.33.93.43 1.4c.09.49.14.98.14 1.47 0 1.97-.8 3.91-2.19 5.3-.35.35-.73.66-1.14.94-.41.27-.85.5-1.3.69-.45.18-.92.33-1.4.42-.48.1-.98.15-1.47.15z" fill="#ee6161"/></g><g><path d="m319.359 212.65c-.489 0-.989-.05-1.47-.15-.479-.09-.95-.24-1.399-.43-.46-.18-.891-.41-1.301-.68-.409-.28-.79-.59-1.14-.94-.34-.34-.66-.73-.93-1.14-.271-.4-.5-.84-.69-1.29-.189-.46-.33-.93-.43-1.41-.09-.48-.141-.97-.141-1.46s.051-.98.141-1.47c.1-.47.24-.95.43-1.4s.42-.89.69-1.29c.27-.41.59-.8.93-1.14.35-.35.73-.66 1.14-.94.41-.27.841-.5 1.301-.69.449-.18.92-.33 1.399-.42 2.43-.5 5.03.3 6.771 2.05.34.34.659.73.93 1.14.27.4.5.84.69 1.29.189.45.329.93.43 1.4.1.49.149.98.149 1.47s-.05.98-.149 1.46c-.101.48-.24.95-.43 1.41-.19.45-.421.89-.69 1.29-.271.41-.59.8-.93 1.14-1.4 1.4-3.33 2.2-5.301 2.2z" fill="#ee6161"/></g><g><path d="m108.17 212.65c-.49 0-.98-.05-1.47-.15-.47-.09-.95-.24-1.4-.42-.45-.19-.89-.42-1.29-.69-.42-.28-.8-.59-1.14-.94-.35-.34-.66-.73-.94-1.14-.27-.4-.5-.84-.69-1.29-.18-.46-.33-.93-.42-1.41-.1-.48-.15-.97-.15-1.46s.05-.98.15-1.47c.09-.48.24-.95.42-1.4.19-.45.42-.89.69-1.29.28-.42.59-.8.94-1.14.34-.35.72-.66 1.14-.94.4-.27.84-.5 1.29-.69.45-.18.93-.33 1.4-.42 2.44-.5 5.03.3 6.77 2.05.35.34.66.72.93 1.14.27.4.51.84.69 1.29.19.45.34.93.43 1.4.1.49.15.98.15 1.47s-.05.98-.15 1.46c-.09.48-.24.95-.43 1.41-.18.45-.42.89-.69 1.29-.27.41-.58.8-.93 1.14-.34.35-.73.66-1.14.94-.4.27-.84.5-1.29.69-.46.18-.93.33-1.41.42-.48.1-.97.15-1.46.15z" fill="#ee6161"/></g></g></g></g></svg>