<svg id="Layer_1" enable-background="new 0 0 512.029 512.029" height="512" viewBox="0 0 512.029 512.029" width="512" xmlns="http://www.w3.org/2000/svg"><g><g><g><path d="m116.183 333.667c-11.888 0-22.554-7.616-26.542-18.952l-80.871-235.314c-4.144-12.06 2.18-25.273 14.098-29.452 2.419-.845 4.935-1.275 7.472-1.275 9.712 0 18.382 6.24 21.573 15.528l56.639 164.807c1.046 3.044 3.904 5.086 7.112 5.086h.05c3.228-.022 6.083-2.107 7.093-5.18l53.934-163.978c3.113-9.465 11.819-15.824 21.668-15.824 2.441 0 4.859.396 7.186 1.177 5.79 1.944 10.486 6.052 13.226 11.569 2.745 5.533 3.194 11.815 1.261 17.688l-77.274 234.938c-3.824 11.364-14.442 19.09-26.409 19.184h-.216z" fill="#87dbff"/><g><path d="m218.821 61.857c-2.739-5.517-7.436-9.625-13.226-11.569-2.327-.782-4.745-1.177-7.186-1.177-5.657 0-10.931 2.106-14.991 5.686 2.209 1.948 4.046 4.33 5.402 7.06 2.745 5.533 3.194 11.815 1.261 17.688l-77.274 234.938c-2.106 6.259-6.28 11.404-11.599 14.789 4.395 2.798 9.553 4.395 14.974 4.395h.216c11.967-.094 22.585-7.82 26.409-19.184l77.274-234.938c1.933-5.873 1.485-12.155-1.26-17.688z" fill="#6bd3ff"/></g><path d="m410.757 463.391c-38.024 0-75.136-16.062-99.276-42.967-19.105-21.293 14.54-52.58 33.813-31.096 24.204 26.975 80.704 43.207 106.205 10.657 21.422-27.343-15.5-51.102-38.624-59.417-30.068-11.172-45.171-16.784-61.262-25.635-23.244-12.787-35.939-37.767-33.131-65.192 3.172-30.973 25.383-57.12 56.585-66.613 38.625-11.754 83.166-.7 113.677 25.219 21.809 18.512-6.841 53.131-29.336 35.453-.972-.781-24.119-19.111-52.621-19.111-19.818 0-40.76 9.221-42.869 29.82-2.381 23.237 37.559 35.146 63.988 43.027 29.702 8.856 59.507 26.934 71.651 57.006 13.549 33.551-2.093 70.657-30.695 90.649-16.793 11.737-37.428 18.2-58.105 18.2z" fill="#ff59ac"/><g fill="#fa46a0"><path d="m458.744 208.349c12.222 10.375 8.595 25.806-.913 34.258.898.657 1.446 1.09 1.577 1.195 22.495 17.678 51.145-16.941 29.336-35.453-26.02-22.104-62.24-33.383-96.297-28.939 24.288 3.051 47.855 13.273 66.297 28.939z"/><path d="m499.557 354.544c-12.144-30.072-41.949-48.15-71.651-57.006-26.429-7.88-66.369-19.789-63.988-43.027 1.589-15.522 13.872-24.58 28.308-28.104-4.881-1.063-10.065-1.716-15.439-1.716-19.818 0-40.76 9.221-42.869 29.82-2.381 23.237 37.559 35.146 63.988 43.027 29.702 8.856 59.507 26.934 71.651 57.006 13.549 33.551-2.093 70.657-30.695 90.649-13.035 9.11-28.387 15.025-44.275 17.224 5.349.638 10.75.975 16.17.975 20.677 0 41.312-6.463 58.104-18.199 28.603-19.992 44.245-57.098 30.696-90.649z"/><path d="m345.294 389.329c-9.467-10.553-22.398-8.369-30.845-.896.284.289.567.586.845.896 17.631 19.649 52.394 33.591 79.833 27.139-19.38-3.847-38.283-14.267-49.833-27.139z"/></g></g><g><g><ellipse cx="250.854" cy="241.521" fill="#fff6e0" rx="90.477" ry="91.384"/><g><g><path d="m259.576 117.608-61.574 147.732h47.603v100.094l58.101-147.733h-44.13z" fill="#ffea00"/></g></g><g><path d="m303.706 217.701h-40l-18.736 47.639h.635v100.094z" fill="#ffd900"/></g></g></g></g><path d="m506.511 351.735c-6.616-16.384-25.349-46.146-76.468-61.387-21.113-6.295-60.412-18.014-58.664-35.074 1.633-15.946 18.96-23.084 35.408-23.084 25.883 0 47.707 17.284 47.985 17.508 30.49 22.938 67.477-21.59 38.827-47.065-41.941-35.929-112.706-45.76-155.779-6.693-14.014-27.205-40.529-46.867-70.744-51.953v-26.38c0-7.961-11.344-10.273-14.423-2.886l-11.849 28.43c-13.362 1.376-26.159 5.491-37.692 11.995l24.095-73.258c5.188-15.774-3.452-33.413-19.225-38.711-15.806-5.304-33.185 3.664-38.365 19.414l-53.972 163.979-35.716-103.924c-3.144-9.148-17.329-4.272-14.186 4.875l35.716 103.925c2.095 6.104 7.863 10.193 14.308 10.148 6.455-.045 12.147-4.199 14.166-10.337l53.934-163.979c2.614-7.947 11.329-12.569 19.341-9.881 8.059 2.707 12.392 11.773 9.75 19.804l-30.883 93.896c-22.36 22.258-32.835 54.544-28.029 85.707-.249.434-18.345 55.286-18.345 55.286-6.46 18.577-32.296 18.633-38.967.188l-80.871-235.315c-2.809-8.174 1.447-17.117 9.477-19.934 7.971-2.784 16.759 1.688 19.48 9.609l9.482 27.591c3.144 9.147 17.329 4.273 14.186-4.875l-9.482-27.591c-5.388-15.681-22.898-24.382-38.62-18.893-15.796 5.541-24.189 23.022-18.709 38.968l80.889 235.366c11.537 31.896 56.237 31.676 67.367-.378l11.482-34.911c13.614 30.641 42.249 53.146 76.69 57.66v25.859c0 8.055 11.524 10.262 14.479 2.745l11.263-28.637c24.665-3.302 47.397-16.273 63.014-35.617 18.135 21.864 47.116 29.474 83.476 43.702 23.352 8.397 36.828 22.083 39.468 31.246 4.148 14.388-12.396 26.377-24.324 29.765-9.31 2.644-5.24 17.08 4.098 14.43 20.14-5.721 41.186-25.625 34.641-48.348-5.612-19.479-29.799-34.373-48.749-41.188-29.721-11.043-44.639-16.586-60.242-25.169-7.818-4.301-14.469-10.304-19.441-17.509 13.758-24.085 16.752-53.544 8.251-79.938 36.674-38.46 102.232-29.021 139.852 3.151 14.221 12.071-5.256 35.306-19.787 23.888-1.056-.848-26.215-20.764-57.316-20.764-22.551 0-47.782 11.68-50.33 36.556-3.015 29.414 40.503 42.391 69.306 50.979 36.349 9.508 86.112 45.177 67.202 97.671-5.263 14.512-15.35 27.528-28.4 36.649-45.03 32.063-113.263 14.93-147.503-23.629-12.293-13.701 10.129-35.038 22.649-21.078 11.003 12.263 27.649 22.276 45.672 27.475 9.292 2.681 13.451-11.733 4.156-14.412-15.168-4.375-29.622-13.003-38.663-23.079-26.613-28.19-69.92 12.081-44.979 41.112 39.078 44.104 116.278 62.384 167.26 25.906 15.559-10.875 27.602-26.44 33.908-43.829 6.801-18.751 6.609-38.037-.555-55.777zm-253.406-25.864v-60.531c0-4.143-3.358-7.5-7.5-7.5h-36.351l42.822-102.743v62.604c0 4.143 3.358 7.5 7.5 7.5h33.121zm-85.228-84.35c-.64-38.63 28.376-74.87 66.172-82.163l-42.97 103.096c-2.021 4.85 1.667 10.386 6.923 10.386h40.103v51.583c-39.968-6.22-70.228-41.194-70.228-82.902zm102.442 81.563 40.366-102.638c1.901-4.832-1.802-10.245-6.979-10.245h-36.63v-50.963c86.718 19.381 89.056 141.051 3.243 163.846z"/></g></svg>